<svg class="svg-icon" style="width: 1em; height: 1em;vertical-align: middle;fill: currentColor;overflow: hidden;" viewBox="0 0 1024 1024" version="1.1" xmlns="http://www.w3.org/2000/svg"><path d="M911.644444 291.038384H645.559596l46.157576-46.157576c30.254545-30.254545 30.254545-79.385859 0-109.769697s-79.385859-30.254545-109.769697 0L512 205.187879l-69.947475-69.947475c-30.254545-30.254545-79.385859-30.254545-109.769697 0s-30.254545 79.385859 0 109.769697l46.157576 46.157576H112.355556v258.585858H188.767677v362.020202h646.464646v-362.020202h76.412121V291.038384z m-366.157575-46.157576l73.179798-73.179798c10.084848-10.084848 26.505051-10.084848 36.589899 0s10.084848 26.505051 0 36.589899l-73.179798 73.179798c-10.084848 10.084848-26.505051 10.084848-36.589899 0-10.214141-10.214141-10.214141-26.505051 0-36.589899z m-176.614142-73.179798c10.084848-10.084848 26.505051-10.084848 36.589899 0l73.179798 73.179798c10.084848 10.084848 10.084848 26.505051 0 36.589899-10.084848 10.084848-26.505051 10.084848-36.589899 0l-73.179798-73.179798c-10.084848-10.084848-10.084848-26.505051 0-36.589899zM164.072727 497.907071v-155.151515H486.141414v155.151515H164.072727z m76.412121 51.717171h245.656566v310.303031H240.484848v-310.303031z m543.030304 310.303031H537.858586v-310.303031h245.656566v310.303031z m76.412121-362.020202H537.858586v-155.151515h322.068687v155.151515z"  /></svg>